<?xml version="1.0" standalone="no"?>
<!DOCTYPE svg PUBLIC "-//W3C//DTD SVG 1.1//EN" "http://www.w3.org/Graphics/SVG/1.1/DTD/svg11.dtd" >
<!--
2013-9-30: Created.
-->
<svg>
<metadata>
Created by iconfont
</metadata>
<defs>

<font id="iconfont" horiz-adv-x="1024" >
  <font-face
    font-family="iconfont"
    font-weight="500"
    font-stretch="normal"
    units-per-em="1024"
    ascent="896"
    descent="-128"
  />
    <missing-glyph />
    
    <glyph glyph-name="x" unicode="x" horiz-adv-x="1001"
d="M281 543q-27 -1 -53 -1h-83q-18 0 -36.5 -6t-32.5 -18.5t-23 -32t-9 -45.5v-76h912v41q0 16 -0.5 30t-0.5 18q0 13 -5 29t-17 29.5t-31.5 22.5t-49.5 9h-133v-97h-438v97zM955 310v-52q0 -23 0.5 -52t0.5 -58t-10.5 -47.5t-26 -30t-33 -16t-31.5 -4.5q-14 -1 -29.5 -0.5
t-29.5 0.5h-32l-45 128h-439l-44 -128h-29h-34q-20 0 -45 1q-25 0 -41 9.5t-25.5 23t-13.5 29.5t-4 30v167h911zM163 247q-12 0 -21 -8.5t-9 -21.5t9 -21.5t21 -8.5q13 0 22 8.5t9 21.5t-9 21.5t-22 8.5zM316 123q-8 -26 -14 -48q-5 -19 -10.5 -37t-7.5 -25t-3 -15t1 -14.5
t9.5 -10.5t21.5 -4h37h67h81h80h64h36q23 0 34 12t2 38q-5 13 -9.5 30.5t-9.5 34.5q-5 19 -11 39h-368zM336 498v228q0 11 2.5 23t10 21.5t20.5 15.5t34 6h188q31 0 51.5 -14.5t20.5 -52.5v-227h-327z" />
    

    
    <glyph glyph-name="liaotian" unicode="&#58888;" d="M502.08 799.690667C230.677333 799.690667 10.666667 607.178667 10.666667 369.717333c0-135.701333 55.552-258.282667 167.808-337.088l0-215.722667c0 0 32.192-33.536 47.936-24 57.173333 34.730667 183.829333 154.645333 183.829333 154.645333 29.781333-4.949333 60.437333-7.808 91.861333-7.808 271.381333 0 491.413333 192.533333 491.413333 430.016C993.493333 607.178667 773.461333 799.690667 502.08 799.690667zM233.6 272.352c-43.690667 0-79.104 37.546667-79.104 83.904 0 46.336 35.413333 83.882667 79.104 83.882667 43.669333 0 79.104-37.546667 79.104-83.882667C312.704 309.898667 277.290667 272.352 233.6 272.352zM502.08 272.352c-43.690667 0-79.104 37.546667-79.104 83.904 0 46.336 35.413333 83.882667 79.104 83.882667 43.648 0 79.061333-37.546667 79.061333-83.882667C581.141333 309.898667 545.728 272.352 502.08 272.352zM770.581333 272.352c-43.669333 0-79.082667 37.546667-79.082667 83.904 0 46.336 35.413333 83.882667 79.082667 83.882667 43.712 0 79.061333-37.546667 79.061333-83.882667C849.642667 309.898667 814.229333 272.352 770.581333 272.352z"  horiz-adv-x="1024" />

    
    <glyph glyph-name="dian" unicode="&#58887;" d="M845.091284 490.632599c-2.605338 5.287423-10.844999 17.748223-31.136138 19.297508-0.635473 0.048095-1.25355 0.063445-1.889023 0.063445l-208.994941 1.341554 53.771671 267.273253c0.162706 0.734734 0.277316 1.50119 0.358157 2.235924 1.889023 16.741289-1.481747 30.000268-10.031471 39.441291-7.148817 7.92346-17.326621 12.268418-28.66076 12.268418-12.978593 0-24.263613-5.734608-27.40721-7.492648-2.817162-1.565658-5.308913-3.626597-7.377014-6.070252L181.62764 343.20180500000004c-0.6191-0.734734-1.205455-1.50119-1.74269-2.316765-6.187933-9.169847-10.210549-23.77038-2.947122-37.205367 3.712555-6.869455 13.288654-18.371416 35.69599-18.371416 1.074472 0 2.181689 0.031722 3.370771 0.079818l185.025017 0.127913L297.719682-13.625065999999947c-0.602727-1.708921-1.010003-3.482311-1.237177-5.287423-0.537236-4.233418-1.449002-18.945491 9.249665-30.927383 7.018857-7.843642 17.114796-12.1886 28.465309-12.1886 6.953366 0 14.314007 1.581008 22.4892 4.808516 3.648087 1.454118 6.936993 3.673669 9.624195 6.517437l471.746204 499.193323c0.99363 1.054005 1.905396 2.188852 2.719948 3.402493C843.934948 456.590272 853.624634 473.268116 845.091284 490.632599zM369.550661 30.368914000000018l86.373183 250.100128c6.399757 16.900925 6.302543 31.087019-0.292666 42.205241-4.998851 8.370645-13.515828 14.217816-22.798239 15.591093-1.302669 0.191358-2.654456 0.303922-3.973498 0.303922l-0.016373 0-181.37693-0.127913L596.801385 751.802854l-47.827285-237.783615c-3.387144-19.360953 3.224438-32.044834 9.379625-39.266305 12.978593-15.271822 32.243355-16.470113 37.877679-16.470113l176.687118-1.070378L369.550661 30.368914000000018z"  horiz-adv-x="1024" />

    
    <glyph glyph-name="zuojiantou" unicode="&#59157;" d="M230.47867799999995 411.52938399999994C229.830169 410.19823299999985 228.66967799999998 409.03774299999986 228.19182899999998 407.706592 216.89411399999995 383.43868899999984 220.61450999999988 353.4707309999999 240.650035 334.04958299999987 240.650035 334.04958299999987 697.3712780000002-110.52064299999995 697.3712780000002-110.52064299999995 722.2535580000002-134.78854499999989 761.539571-133.62805500000013 785.1248320000001-108.02900099999988 808.710093-82.39581599999997 807.583735-41.98344399999985 782.7014550000001-17.715541999999914 782.7014550000001-17.715541999999914 372.84354599999995 381.254237 372.84354599999995 381.254237 372.84354599999995 381.254237 781.0972479999998 786.0605990000001 781.0972479999998 786.0605990000001 805.8088669999999 810.4991620000001 806.457377 850.945666 782.7014549999998 876.3740590000001 770.5845699999998 889.3442460000001 754.2694399999997 896 738.0908389999998 896 722.5948779999999 896 707.0647859999999 890.026888 695.1185609999998 878.046531 695.1185609999998 878.046531 242.59556300000008 429.1756649999999 242.59556300000008 429.1756649999999 241.77639399999998 428.322363 241.469205 426.991212 240.47937500000012 426.1720419999999 239.83086600000001 425.48940099999993 239.18235600000003 425.01155199999994 238.39731900000004 424.32890999999984 234.676923 420.50611799999996 232.90205500000008 415.8641569999999 230.47867799999995 411.52938399999994 230.47867799999995 411.52938399999994 230.47867799999995 411.52938399999994 230.47867799999995 411.52938399999994 230.47867799999995 411.52938399999994 230.47867799999995 411.52938399999994 230.47867799999995 411.52938399999994Z"  horiz-adv-x="1024" />

    
    <glyph glyph-name="xianshiqi" unicode="&#58892;" d="M951.706624 815.147008L61.920256 815.147008c-16.386048 0-29.667328-13.29152-29.667328-29.656064l0-593.202176c0-16.375808 13.28128-29.668352 29.667328-29.668352l415.244288 0 0-118.626304L358.521856 43.99411199999997c-16.397312 0-29.657088-13.28128-29.657088-29.658112 0-16.387072 13.259776-29.657088 29.657088-29.657088l296.585216 0c16.386048 0 29.668352 13.270016 29.668352 29.657088 0 16.376832-13.282304 29.658112-29.668352 29.658112L536.47872 43.99411199999997 536.47872 162.62041599999998l415.227904 0c16.375808 0 29.658112 13.29152 29.658112 29.668352L981.364736 785.490944C981.364736 801.855488 968.082432 815.147008 951.706624 815.147008M922.049536 221.956096L91.567104 221.956096 91.567104 755.833856l830.482432 0L922.049536 221.956096z"  horiz-adv-x="1024" />

    
    <glyph glyph-name="banshou" unicode="&#59111;" d="M994.859064 711.413984c-17.587722-19.186605-46.36763-44.768746-86.339724-81.543073-43.169862-43.169862-105.526329-43.169862-148.696191 0-43.169862 43.169862-43.169862 105.526329 0 148.696191 39.972094 39.972094 83.141957 87.938608 83.141957 87.938608-116.718516 54.362048-259.019172 33.576559-354.952199-62.356467-87.938608-87.938608-111.921865-212.651543-75.147538-322.974523L41.924332 111.83256700000004c-54.362048-54.362048-54.362048-142.300656 0-198.261589 54.362048-54.362048 143.89954-54.362048 198.261589 0l369.342153 369.342153c110.322981-36.774327 235.035916-11.192186 322.974523 75.147538C1028.435623 453.993696 1047.622229 594.695468 994.859064 711.413984zM882.937199 407.626066c-78.345305-78.345305-196.662705-91.136375-289.397964-41.570978L190.620523-36.863624999999956c-27.181024-27.181024-71.94977-27.181024-99.130794 0-27.181024 27.181024-27.181024 71.94977 0 99.130794l404.517596 402.918712c-49.565397 92.735259-36.774327 209.453775 41.570978 287.79908 46.36763 46.36763 108.724097 68.752003 169.481681 70.350886-63.955351-68.752003-63.955351-175.877216 3.197768-243.030334 67.153119-67.153119 174.278332-67.153119 243.030334-3.197768C951.689202 516.3501630000001 929.304829 453.993696 882.937199 407.626066z"  horiz-adv-x="1024" />

    
    <glyph glyph-name="denglu" unicode="&#58894;" d="M279.265378 532.662855a291.556 227.434 90 1 1 465.469244 0 291.556 227.434 90 1 1-465.469244 0ZM814.452473 142.038226l-178.396039 92.273567c0 0-45.588291-108.881826-124.056434-122.344442-78.468143 13.462616-124.056434 122.344442-124.056434 122.344442l-178.396039-92.273567c-108.678188-67.667146-104.576777-205.052143-104.576777-205.052143l402.927839 0 8.201799 0 402.927839 0C919.02925-63.01391699999999 923.129638 74.37108 814.452473 142.038226z"  horiz-adv-x="1024" />

    
    <glyph glyph-name="zuobiao" unicode="&#58952;" d="M512.813017-64.25314000000003l-2.089591 0c-31.764448 0-55.18588 25.53456-57.751309 28.446889l-0.093121 0.106424c-60.542888 69.657476-129.71941 151.353127-184.471408 239.474117-65.884546 106.036012-97.911984 199.939705-97.911984 287.078321 0 91.727121 35.537378 177.650049 100.06502 241.939261 64.305585 64.069201 149.953244 99.353822 241.164618 99.353822 91.231841 0 176.899966-35.283598 241.222947-99.351775 64.546062-64.290235 100.092649-150.213163 100.092649-241.941308 0-87.169315-32.021298-181.079148-97.893564-287.09367-54.843072-88.264253-124.011408-169.887248-184.537923-239.464907l-0.010233 0.00921C566.799582-40.00999300000001 544.002366-64.25314000000003 512.813017-64.25314000000003zM483.696886-8.761292000000026c3.387144-3.750417 15.689331-14.560624 27.02654-14.560624l2.089591 0c11.248182 0 23.406083 10.620895 26.885324 14.446014l0.027629 0.032746c131.784442 151.488203 272.382621 327.526545 272.382621 499.692696 0 165.620062-134.75203 300.360835-300.383348 300.360835-165.584246 0-300.29739-134.740774-300.29739-300.360835C211.427852 318.932052 351.951329 142.825149 483.696886-8.761292000000026zM510.431783 277.939429c-56.896848 0-110.381993 22.228257-150.604066 62.590524-40.203654 40.342824-62.34493 93.980441-62.34493 151.030785 0 117.789707 95.528704 213.618239 212.95002 213.618239 117.420293 0 212.95002-95.828532 212.95002-213.618239 0-57.050344-22.141276-110.687962-62.34493-151.030785C620.813776 300.167686 567.327608 277.939429 510.431783 277.939429zM510.431783 664.246729c-94.850252 0-172.017772-77.466326-172.017772-172.685991 0-95.220688 77.166497-172.689061 172.017772-172.689061s172.017772 77.468372 172.017772 172.689061C682.448532 586.780403 605.282035 664.246729 510.431783 664.246729z"  horiz-adv-x="1024" />

    
    <glyph glyph-name="shunfeng" unicode="&#58891;" d="M821.207843 735.3725489999999C726.839216 795.607843 620.423529 825.72549 509.992157 825.72549 399.560784 825.72549 291.137255 795.607843 198.776471 735.3725489999999l-40.156863 28.109804c104.407843 70.27451 224.878431 108.423529 351.372549 108.423529 126.494118 0 246.964706-38.14902 351.372549-108.423529L821.207843 735.3725489999999zM865.380392 72.784314c60.235294 92.360784 92.360784 198.776471 92.360784 309.207843 2.007843 110.431373-28.109804 218.854902-86.337255 311.215686l28.109804 40.156863c70.27451-104.407843 104.407843-226.886275 104.407843-351.372549-2.007843-126.494118-40.156863-246.964706-110.431373-349.364706L865.380392 72.784314zM200.784314 22.588235000000054c92.360784-58.227451 198.776471-90.352941 309.207843-90.352941 110.431373 0 218.854902 30.117647 311.215686 88.345098l40.156863-28.109804c-104.407843-70.27451-224.878431-106.415686-351.372549-106.415686-126.494118 0-246.964706 38.14902-351.372549 108.423529L200.784314 22.588235000000054zM156.611765 691.2c-60.235294-92.360784-92.360784-198.776471-94.368627-309.207843C60.235294 271.560784 90.352941 165.14509799999996 146.572549 70.77647100000002l-28.109804-40.156863c-68.266667 104.407843-104.407843 226.886275-102.4 351.372549 2.007843 126.494118 40.156863 246.964706 112.439216 349.364706L156.611765 691.2zM453.772549 518.52549c-34.133333 18.070588-120.470588 56.219608-174.682353 10.039216-18.070588-14.054902-30.117647-44.172549-20.078431-66.258824 10.039216-22.086275 44.172549-40.156863 70.27451-54.211765l10.039216-6.023529c36.141176-20.078431 72.282353-40.156863 100.392157-74.290196 22.086275-28.109804 30.117647-64.25098 22.086275-100.392157-8.031373-34.133333-30.117647-62.243137-60.235294-78.305882-20.078431-10.039216-42.164706-14.054902-66.258824-14.054902-14.054902 0-30.117647 2.007843-46.180392 6.023529-28.109804 8.031373-56.219608 20.078431-84.329412 36.141176L202.792157 233.41176499999995c30.117647-22.086275 66.258824-40.156863 96.376471-48.188235 30.117647-8.031373 58.227451-6.023529 80.313725 6.023529 20.078431 10.039216 32.12549 26.101961 38.14902 48.188235 4.015686 22.086275 0 44.172549-14.054902 62.243137-20.078431 26.101961-52.203922 44.172549-84.329412 62.243137l-12.047059 6.023529c-30.117647 16.062745-72.282353 40.156863-88.345098 74.290196-20.078431 44.172549 2.007843 94.368627 32.12549 118.462745 64.25098 54.211765 150.588235 28.109804 200.784314 6.023529 0 0 2.007843 0 2.007843 0L453.772549 518.52549zM809.160784 520.5333330000001c-4.015686 2.007843-86.337255 52.203922-206.807843 4.015686l0-401.568627-44.172549 0L558.180392 554.666667l14.054902 6.023529c110.431373 50.196078 198.776471 28.109804 238.933333 10.039216L809.160784 520.5333330000001zM724.831373 363.921569m-30.117647 0a1.5 1.5 0 1 1 60.235294 0 1.5 1.5 0 1 1-60.235294 0Z"  horiz-adv-x="1024" />

    
    <glyph glyph-name="jiaohuan" unicode="&#58900;" d="M1006.995455 382.090909c0 0.645455 0.095455 1.263636 0.095455 1.909091 0 0.645455-0.095455 1.263636-0.095455 1.909091L1006.995455 382.090909 1006.995455 382.090909zM515.186364-37.027273c-183.163636 0-338.572727 117.131818-396.386364 280.490909l220.75 0c19.4 0 35.122727 15.745455 35.122727 35.15 0 19.372727-15.722727 35.113636-35.122727 35.113636L58.518182 313.727273c0 0-0.013636-0.004545-0.022727-0.004545-4.113636 0-7.9-0.963636-11.495455-2.322727-1.2-0.422727-2.359091-0.790909-3.490909-1.336364-2.509091-1.286364-4.836364-2.868182-6.968182-4.695455-4.813636-3.954545-8.572727-8.890909-10.745455-14.859091l0-0.004545 0 0c-1.490909-3.686364-2.4-7.645455-2.4-11.890909l0-281.031818c0-19.404545 15.727273-35.15 35.127273-35.15s35.131818 15.745455 35.131818 35.15l0 134.631818c85.745455-143.581818 242.077273-240.018182 421.536364-240.018182 247.809091 0 452.240909 183.381818 486.340909 421.722727l-71.636364 0C896.459091 114.818182 723.772727-37.027273 515.186364-37.027273L515.186364-37.027273zM23.386364 385.995455c0-0.672727-0.1-1.318182-0.1-1.995455s0.1-1.318182 0.1-1.995455L23.386364 385.995455 23.386364 385.995455zM515.186364 805.031818c183.177273 0 338.595455-117.140909 396.4-280.509091l-220.754545 0c-19.404545 0-35.127273-15.740909-35.127273-35.113636l0.004545-0.022727c0 0-0.004545-0.018182-0.004545-0.031818 0-10.945455 5.327273-20.331818 13.2-26.763636 6.054545-4.959091 13.490909-8.336364 21.931818-8.336364l281.036364 0c0.1 0 0.186364 0.036364 0.286364 0.036364 0.059091 0 0.109091-0.036364 0.163636-0.036364 0.245455 0 0.445455 0.136364 0.686364 0.140909 3.495455 0.122727 6.768182 0.872727 9.877273 1.995455 14.145455 4.540909 24.563636 17.340909 24.563636 32.995455 0 0.804545-0.404545 1.472727-0.454545 2.263636L1006.995455 770.386364c0 19.436364-15.727273 35.15-35.127273 35.15s-35.131818-15.713636-35.131818-35.15l0-135.022727c-85.577273 143.831818-241.931818 240.440909-421.55 240.440909-247.8 0-452.236364-183.409091-486.340909-421.722727l71.636364 0C133.913636 653.181818 306.604545 805.031818 515.186364 805.031818L515.186364 805.031818z"  horiz-adv-x="1024" />

    
    <glyph glyph-name="m" unicode="&#58968;" d="M674.133333 170.66666699999996v260.266666c0 25.6 0 55.466667 4.266667 89.6h-4.266667c-4.266667-25.6-8.533333-46.933333-12.8-55.466666l-110.933333-294.4h-76.8l-115.2 290.133333c-4.266667 8.533333-8.533333 25.6-12.8 55.466667h-4.266667c4.266667-34.133333 4.266667-72.533333 4.266667-106.666667v-243.2h-85.333333v426.666667h140.8l98.133333-256c8.533333-21.333333 12.8-42.666667 17.066667-59.733334 4.266667 21.333333 12.8 42.666667 17.066666 59.733334l98.133334 256h136.533333v-426.666667h-93.866667zM512 810.666667c234.666667 0 426.666667-192 426.666667-426.666667s-192-426.666667-426.666667-426.666667-426.666667 192-426.666667 426.666667 192 426.666667 426.666667 426.666667m0 85.333333c-281.6 0-512-230.4-512-512s230.4-512 512-512 512 230.4 512 512-230.4 512-512 512z"  horiz-adv-x="1024" />

    
    <glyph glyph-name="yijiuhuanx" unicode="&#58971;" d="M890.434783 183.65217399999995h-712.347826v89.043478h89.043478l-133.565218 133.565218-133.565217-133.565218h89.043478v-311.652174c0-48.973913 40.069565-89.043478 89.043479-89.043478h712.347826c48.973913 0 89.043478 40.069565 89.043478 89.043478v311.652174h-89.043478v-89.043478z m0-222.608696h-712.347826v133.565218h712.347826v-133.565218zM178.086957 806.956522h712.347826v-311.652174h-89.043479l133.565218-133.565218 133.565217 133.565218h-89.043478v311.652174c0 48.973913-40.069565 89.043478-89.043478 89.043478h-712.347826c-48.973913 0-89.043478-40.069565-89.043479-89.043478v-311.652174h89.043479v311.652174z"  horiz-adv-x="1068" />

    
    <glyph glyph-name="huigoudan" unicode="&#58969;" d="M89.043478-38.95652199999995v845.913044h801.391305v-311.652174h89.043478v311.652174c0 48.973913-40.069565 89.043478-89.043478 89.043478h-801.391305c-48.973913 0-89.043478-40.069565-89.043478-89.043478v-845.913044c0-48.973913 40.069565-89.043478 89.043478-89.043478h445.217392v89.043478h-445.217392zM178.086957 673.391304h623.304347v-89.043478h-623.304347zM1019.547826-65.66956500000003l-106.852174 106.852174c40.069565 44.521739 62.330435 102.4 62.330435 164.730434 0 133.565217-111.304348 244.869565-244.869565 244.869566s-244.869565-111.304348-244.869565-244.869566 111.304348-244.869565 244.869565-244.869565c40.069565 0 75.686957 8.904348 111.304348 26.713044l111.304347-111.304348 66.782609 57.878261z m-440.765217 271.582608c0 84.591304 71.234783 155.826087 155.826087 155.826087s155.826087-71.234783 155.826087-155.826087-71.234783-155.826087-155.826087-155.826086-155.826087 66.782609-155.826087 155.826086zM178.086957 450.782609h311.652173v-89.043479h-311.652173zM178.086957 228.17391299999997h222.608695v-89.043478h-222.608695z"  horiz-adv-x="1024" />

    
    <glyph glyph-name="yiwaibao" unicode="&#58970;" d="M354.133333 682.666667c-29.866667-76.8-81.066667-157.866667-132.266666-209.066667 12.8-17.066667 29.866667-51.2 34.133333-68.266667 12.8 17.066667 29.866667 29.866667 42.666667 51.2v-290.133333h64v388.266667c21.333333 34.133333 38.4 72.533333 51.2 110.933333l-59.733334 17.066667zM635.733333 358.4h110.933334v59.733333h-145.066667v51.2h115.2v192h-290.133333v-192h106.666666v-51.2h-145.066666v-59.733333h115.2c-34.133333-46.933333-85.333333-93.866667-132.266667-119.466667 17.066667-12.8 34.133333-38.4 46.933333-51.2 42.666667 29.866667 85.333333 72.533333 119.466667 119.466667v-140.8h68.266667v145.066667c29.866667-51.2 72.533333-93.866667 110.933333-123.733334 8.533333 17.066667 29.866667 38.4 46.933333 51.2-46.933333 25.6-98.133333 68.266667-128 119.466667z m-145.066666 166.4v72.533333h162.133333v-72.533333h-162.133333zM925.866667 768c-110.933333 55.466667-345.6 128-413.866667 128-85.333333 0-469.333333-128-469.333333-170.666667v-469.333333c0-85.333333 128-341.333333 469.333333-384 341.333333 42.666667 469.333333 298.666667 469.333333 384v469.333333c0 8.533333-21.333333 25.6-55.466666 42.666667z m-29.866667-512c0-29.866667-81.066667-256-384-298.666667-302.933333 42.666667-384 268.8-384 298.666667V686.933333c81.066667 42.666667 332.8 123.733333 384 123.733334 42.666667 0 264.533333-64 375.466667-119.466667 4.266667 0 8.533333-4.266667 8.533333-4.266667v-430.933333z"  horiz-adv-x="1024" />

    
    <glyph glyph-name="weixin" unicode="&#58880;" d="M633.30116462 501.36848831c7.86458016 0 15.63182831-0.5778122 23.35813523-1.4406681-20.98586082 97.74373055-125.47794341 170.35494804-244.76062775 170.35494805-133.34329605 0-242.58456231-90.88954926-242.5845623-206.30290033 0-66.61989212 36.34037018-121.32588386 97.0801735-163.75568389l-24.2611599-72.97428131 84.78312492 42.52713203c30.36063194-6.01063728 54.69903946-12.17808724 84.98087883-12.17808723 7.60889053 0 15.15984535 0.37233352 22.65131951 0.9601879-4.74609375 16.21891022-7.49147415 33.20334434-7.49147415 50.82275391 0.00154495 105.9814167 91.00310325 191.98582649 206.24419211 191.9858265zM502.86006164 567.13633919c18.2605648 0 30.36063194-12.01200486 30.36063194-30.26947975 0-18.18099976-12.10006714-30.35831452-30.36063194-30.35831452-18.18099976 0-36.41993523 12.17808724-36.41993522 30.35831452 0.00077248 18.2574749 18.23970794 30.26947975 36.41993522 30.26947975zM333.09683037 506.50699997c-18.18177223 0-36.53812409 12.17808724-36.53812409 30.35831451 0 18.2574749 18.35712432 30.26947975 36.53812409 30.26947976 18.18022728 0 30.2810669-12.01200486 30.28106689-30.26947976 0-18.18022728-12.10083962-30.35831452-30.28106689-30.35831451zM854.68434524 312.30416678999995c0 96.97897911-97.04000473 176.03342056-206.04566573 176.03342056-115.41798592 0-206.32143974-79.05444145-206.32143974-176.03342056 0-97.15433121 90.90345382-176.03110313 206.32143974-176.03110312 24.16228294 0 48.54085923 6.10024452 72.80047416 12.17808723l66.52565002-36.43770219-18.24048042 60.61852455c48.69767189 36.52730942 84.95924949 84.96697426 84.9592495 139.67219353zM581.76000786 342.65321158999996c-12.08075523 0-24.27969932 12.01123238-24.27969932 24.26888466 0 12.09002495 12.19894409 24.25961495 24.27969932 24.25961495 18.3385849 0 30.36063194-12.17036247 30.36063194-24.25961495 0-12.25687981-12.02204705-24.26888467-30.36063194-24.26888466zM715.18286896 342.65321158999996c-12.00350762 0-24.10280228 12.01123238-24.10280228 24.26888466 0 12.09002495 12.10006714 24.25961495 24.10280228 24.25961495 18.18099976 0 30.35908699-12.17036247 30.35908699-24.25961495 0.00077248-12.25687981-12.17808724-24.26888467-30.35908699-24.26888466z"  horiz-adv-x="1024" />

    
    <glyph glyph-name="fanhui" unicode="&#59094;" d="M638.2 623.5H400.5V741c0 12.1-12.9 19.9-23.6 14.3l-304-158.9c-11.7-6.1-11.5-22.8 0.3-28.7l304-151.9c10.7-5.4 23.3 2.4 23.3 14.4V548.3h237.8c135.4 0 245.5-103.6 245.5-231s-110.1-231-245.5-231h-489c-20.8 0-37.6-16.8-37.6-37.6s16.8-37.6 37.6-37.6h489c176.8 0 320.6 137.3 320.6 306.2 0 168.8-143.9 306.2-320.7 306.2z"  horiz-adv-x="1024" />

    
    <glyph glyph-name="weibo" unicode="&#58897;" d="M661.4 400.2c0 5.4 52.2 54 0 84.6s-147.6-16.2-145.8-10.8c41.4 70.2-18 93.6-48.6 93.6-72 0-259.2-156.6-259.2-255.6s124.2-180 279-180S764 213 764 312c3.6 81-102.6 81-102.6 88.2z m-165.6-216c-99-14.4-185.4 27-194.4 90-9 64.8 63 127.8 162 140.4 99 14.4 185.4-27 194.4-90s-63-126-162-140.4zM567.8 312c-9 48.6-64.8 79.2-122.4 68.4-59.4-10.8-99-59.4-88.2-109.8 9-48.6 64.8-79.2 122.4-68.4 57.6 10.8 97.2 61.2 88.2 109.8z m-129.6-61.2c-18-9-37.8-3.6-43.2 9s3.6 30.6 21.6 39.6 37.8 3.6 43.2-9-3.6-30.6-21.6-39.6z m41.4 41.4c-10.8 0-18 7.2-18 18s7.2 18 18 18 18-7.2 18-18-7.2-18-18-18zM729.8 528c-32.4 28.8-70.2 19.8-70.2 19.8-9-1.8-18-10.8-18-19.8v5.4c0-9 7.2-18 18-18 0 0 30.6 5.4 48.6-16.2 18-19.8 5.4-48.6 5.4-48.6-3.6-9 3.6-18 12.6-18h1.8c10.8 0 19.8 7.2 21.6 18 0-1.8 12.6 46.8-19.8 77.4zM791 585.6c-59.4 55.8-140.4 48.6-140.4 48.6-14.4 0-27-12.6-27-27v5.4c0-14.4 12.6-27 27-27 0 0 77.4 9 113.4-43.2s21.6-108 21.6-108c-1.8-14.4 9-27 23.4-27h-5.4c14.4 0 28.8 12.6 30.6 27-1.8 1.8 16.2 95.4-43.2 151.2z"  horiz-adv-x="1044" />

    
    <glyph glyph-name="meizu" unicode="&#59765;" d="M2897.646933 896h208.145067v-1023.931733h-208.145067V896zM1273.2416 896H168.96C75.639467 896 0 819.6096 0 725.333333v-853.265066h198.519467V661.026133c0 37.6832 30.242133 68.266667 67.584 68.266667h355.7376v-857.224533h198.519466V729.2928h355.7376c37.341867 0 67.584-30.583467 67.584-68.266667v-788.957866h198.519467V725.333333c0 94.276267-75.639467 170.666667-168.96 170.666667z m578.628267-788.957867V300.578133h790.1184V467.490133H1851.869867V661.026133c0 37.6832 30.242133 68.266667 67.584 68.266667H2683.562667V896H1822.242133c-93.252267 0-168.891733-76.3904-168.891733-170.666667v-682.5984c0-94.276267 75.639467-170.666667 168.96-170.666666h861.320533v166.7072H1919.453867a67.925333 67.925333 0 0 0-67.584 68.266666zM4214.5792 896H3325.678933v-166.7072h735.709867l-705.672533-633.173333c-113.186133-97.757867-39.5264-224.119467 54.408533-224.119467h899.072v166.775467H3559.082667l706.696533 633.173333c114.005333 103.6288 45.4656 224.0512-51.2 224.0512z m1184.768 0v-788.957867c0-37.6832-30.242133-68.266667-67.584-68.266666h-567.0912a67.925333 67.925333 0 0 0-67.584 68.266666V896h-197.973333v-853.265067c0-94.276267 75.639467-170.666667 168.96-170.666666h760.832c93.320533 0 168.96 76.3904 168.96 170.666666V896h-198.519467z"  horiz-adv-x="5597" />

    
    <glyph glyph-name="gouwuche" unicode="&#58906;" d="M321.828571-103.619048c-63.390476 0-117.028571 53.638095-117.028571 117.028572s53.638095 117.028571 117.028571 117.028571c63.390476 0 117.028571-53.638095 117.028572-117.028571s-53.638095-117.028571-117.028572-117.028572z m0 185.295238c-39.009524 0-68.266667-29.257143-68.266666-68.266666 0-39.009524 29.257143-68.266667 68.266666-68.266667S390.095238-25.6 390.095238 13.409524c-4.87619 39.009524-34.133333 68.266667-68.266667 68.266666zM833.828571-103.619048c-63.390476 0-117.028571 53.638095-117.028571 117.028572s53.638095 117.028571 117.028571 117.028571 117.028571-53.638095 117.028572-117.028571-53.638095-117.028571-117.028572-117.028572z m0 185.295238c-39.009524 0-68.266667-29.257143-68.266666-68.266666 0-39.009524 29.257143-68.266667 68.266666-68.266667s68.266667 29.257143 68.266667 68.266667c0 39.009524-29.257143 68.266667-68.266667 68.266666zM887.466667 203.580952H238.933333L151.161905 822.857143H48.761905v48.761905h141.409524l24.380952-156.038096h741.180952l-68.266666-512z m-604.647619 48.761905h560.761904l53.638096 414.476191H219.428571l63.390477-414.476191z"  horiz-adv-x="1024" />

    
    <glyph glyph-name="fangzi" unicode="&#58893;" d="M518.00064 888.8832c-5.30432 0-10.624-5.30432-13.28128-7.96672l-425.0624-491.47904C74.35264 384.12288 71.68 378.81856 71.68 370.8416c0-5.30944 2.67264-13.2864 7.97696-18.59072 5.30432-5.31968 13.28128-5.31968 18.5856-5.31968l53.13536 0 0-355.98848c0-69.07392 37.20192-106.2656 106.2656-106.2656L783.6672-115.32288c71.72096 0 106.2656 37.19168 106.2656 106.2656l0 353.32608 55.78752 0c5.31968 0 13.2864 2.6624 18.60096 5.31968 5.30432 5.31968 7.96672 10.624 7.96672 18.60096 0 5.30432-2.6624 13.28128-7.96672 18.59072L544.56832 880.9216c-5.30944 2.6624-10.624 7.96672-13.2864 7.96672C525.9776 891.5456 520.66304 891.5456 518.00064 888.8832zM887.2704 397.40928l-15.92832 0-2.67264 0c-2.64704 0-2.64704 0-5.30432 0-5.30432 0-13.28128-2.64704-18.5856-10.624-5.31968-2.6624-7.97696-10.624-7.97696-15.94368l0-379.89376c0-34.52928-15.94368-53.13024-53.13536-53.13024L257.64352-62.1824c-34.5344 0-53.13024 18.60096-53.13024 53.13024l0 382.55104c0 5.31968-2.64704 13.2864-7.96672 18.60096-5.31968 5.30432-10.624 7.96672-18.60096 7.96672l-21.248 0 366.61248 422.4L887.2704 397.40928z"  horiz-adv-x="1024" />

    
    <glyph glyph-name="QQkongjian" unicode="&#58896;" d="M828.77513272 455.54210797c-5.81780291 16.77888008-218.79996543 31.70280789-218.79996543 31.7028079s-78.75112446 197.72097034-97.80653512 197.72097034-97.80653512-197.72097034-97.80653595-197.72097034S202.30740943 472.32098804 195.56213162 455.54210797c-6.74527862-16.86319574 158.34540811-153.96097742 158.34540812-153.96097742s-48.7346358-208.26046747-37.35197864-217.3665932c11.38265716-9.10612573 195.69738675 102.61254584 195.69738675 102.61254584s182.88135818-115.59720657 195.69738674-102.61254584c9.44338926 9.52770575-15.85140436 126.55828455-29.59490863 185.74810099-0.42158002 1.85495141-71.49995013-7.92570217-150.33539026-8.43159788-69.98226223-0.5058957-148.05885882 4.30011502-148.05885882 4.30011503L562.16800721 401.15830142s-56.66033798 10.28654929-99.66148655 14.16508512c-61.4663487 5.56485425-115.34425873 5.3962229-108.59898093 7.08254214 10.62381363 2.69811145 85.3277709 9.69633792 158.34540812 7.08254215 66.60962292-2.3608471 132.46040231-14.16508429 132.46040313-14.16508429L462.50652066 285.72972702000004s39.79714224-6.15506644 72.84900586-7.41980649c62.8997201-2.4451636 139.71157663-0.67452786 139.54294445 0-2.3608471 9.94928576-4.38443069 23.18689434-4.38443069 23.18689434S834.67725132 438.76322791 828.77513272 455.54210797z"  horiz-adv-x="1024" />

    
    <glyph glyph-name="youjiantou" unicode="&#59766;" d="M793.521322 356.47061600000006C794.169831 357.80176700000015 795.330322 358.962257 795.808171 360.293408 807.105886 384.561311 803.3854900000001 414.52926900000006 783.349965 433.9504169999999 783.349965 433.9504169999999 326.62872200000004 878.5206430000001 326.62872200000004 878.5206430000001 301.74644199999994 902.788545 262.4604290000002 901.6280550000001 238.87516800000003 876.0290010000001 215.2899070000002 850.3958160000002 216.41626500000007 809.983444 241.298545 785.7155419999999 241.298545 785.7155419999999 651.156454 386.74576299999995 651.156454 386.74576299999995 651.156454 386.74576299999995 242.90275200000013-18.060599000000025 242.90275200000013-18.060599000000025 218.19113300000004-42.49916200000007 217.54262299999994-82.94566599999985 241.2985450000001-108.37405899999999 253.41543000000001-121.344246 269.7305600000002-127.99999999999989 285.9091609999999-128 301.4051219999999-127.99999999999989 316.9352139999999-122.02688799999987 328.88143900000006-110.04653099999985 328.88143900000006-110.04653099999985 781.4044369999999 338.824335 781.4044369999999 338.824335 782.223606 339.6776369999999 782.530795 341.008788 783.5206249999999 341.8279580000001 784.169134 342.51059900000007 784.817644 342.98844800000006 785.6026809999998 343.67109000000005 789.323077 347.493882 791.097945 352.1358429999999 793.521322 356.47061600000006 793.521322 356.47061600000006 793.521322 356.47061600000006 793.521322 356.47061600000006 793.521322 356.47061600000006 793.521322 356.47061600000006 793.521322 356.47061600000006Z"  horiz-adv-x="1024" />

    


  </font>
</defs>
</svg>
